# xmcd CD database file
#
# Track frame offsets:
#	150
#	11310
#	20935
#	30960
#	42300
#	57752
#	69390
#	82587
#	93900
#	106065
#	126357
#	136070
#	146537
#	161352
#	172832
#
# Disc length: 2448 seconds
#
# Revision: 0
# Processed by: cddbd v1.4PL0 Copyright (c) Steve Scherf et al.
# Submitted via: CDex 1.51
#
DISCID=aa098e0f
DTITLE=Jazz Kings - New Orleans
DYEAR=2001
DGENRE=Jazz
TTITLE0=Les copains d'abord
TTITLE1=12nd Street Rag
TTITLE2=Mack The Knife
TTITLE3=Whispering
TTITLE4=Just a Gigolo
TTITLE5=Tiger Rag
TTITLE6=Petite Fleur
TTITLE7=Down by the Riverside
TTITLE8=When the saint's go Marchin' in
TTITLE9=All of Me
TTITLE10=Careless Love
TTITLE11=Charleston
TTITLE12=Dans les rues d'Antibes
TTITLE13=Orlando
TTITLE14=New Orleans Jazz Kings
EXTD=YEAR: 2001
EXTT0=
EXTT1=
EXTT2=
EXTT3=
EXTT4=
EXTT5=
EXTT6=
EXTT7=
EXTT8=
EXTT9=
EXTT10=
EXTT11=
EXTT12=
EXTT13=
EXTT14=
PLAYORDER=
